<?xml version="1.0" encoding="UTF-8"?>
<svg id="Layer_1" data-name="Layer 1" xmlns="http://www.w3.org/2000/svg" viewBox="0 0 2505.51 883.69">
  <defs>
    <style>
      .cls-1 {
        fill: #1c75bc;
      }

      .cls-1, .cls-2, .cls-3, .cls-4 {
        stroke: #1c75bc;
        stroke-miterlimit: 10;
      }

      .cls-1, .cls-4 {
        stroke-linecap: round;
      }

      .cls-5 {
        fill: #000;
      }

      .cls-5, .cls-6 {
        stroke-width: 0px;
      }

      .cls-2, .cls-6, .cls-3, .cls-4 {
        fill: none;
      }

      .cls-2, .cls-4 {
        stroke-width: 40px;
      }

      .cls-3 {
        stroke-width: 20px;
      }
    </style>
  </defs>
  <polyline class="cls-4" points="501.58 795.8 747.98 653.54 747.98 233.24 383.99 23.09 20 233.24 20 653.54 383.99 863.69"/>
  <circle class="cls-1" cx="383.99" cy="443.39" r="87.55"/>
  <circle class="cls-1" cx="383.99" cy="233.39" r="55.14"/>
  <circle class="cls-1" cx="565.99" cy="548.47" r="55.14"/>
  <polyline class="cls-6" points="747.98 653.54 383.99 443.39 20 653.54"/>
  <circle class="cls-1" cx="200.59" cy="548.47" r="55.14"/>
  <polyline class="cls-2" points="565.99 548.47 383.99 443.39 383.99 233.39"/>
  <path class="cls-3" d="M188.59,533.47l183.4-105.08-183.4,105.08Z"/>
  <path class="cls-3" d="M179.29,575.48l183.4-105.08-183.4,105.08Z"/>
  <line class="cls-3" x1="492.72" y1="800.92" x2="501.58" y2="795.8"/>
  <line class="cls-2" x1="383.99" y1="443.39" x2="383.99" y2="863.69"/>
  <g>
    <path class="cls-5" d="M878.87,277.76c23.4-4.27,57.61-7.25,93.36-7.25,48.29,0,81.25,8.15,103.93,27.17,18.55,15.42,29.05,38.78,29.05,67.68,0,43.4-29.51,73.01-61.3,84.19v1.43c24.42,9.25,38.65,32.47,47,65.22,10.72,42.17,19.9,80.83,26.62,93.93h-63.22c-5.23-9.75-13.28-37.58-22.71-79.51-9.66-43.93-25.65-58.18-60.63-58.98h-31v138.49h-61.1v-332.38ZM939.97,426.49h36.43c41.76,0,67.47-22.01,67.47-55.5,0-36.67-25.84-53.9-65.64-54.04-19.53,0-31.98,1.52-38.26,3.13v106.41Z"/>
    <path class="cls-5" d="M1206.09,505.45c1.64,44.12,35.77,63.39,75.17,63.39,28.31,0,48.57-4.44,67.18-11.28l9.11,42.37c-20.85,8.84-49.74,15.45-85.07,15.45-79.03,0-125.32-48.83-125.32-123.42,0-67.18,40.75-130.75,119.04-130.75s104.88,65.05,104.88,118.39c0,11.44-1,20.6-2.17,25.85h-162.83ZM1313.14,462.55c.27-22.55-9.53-59.32-50.76-59.32-37.88,0-53.64,34.41-56.38,59.32h107.15Z"/>
    <path class="cls-5" d="M1427.53,610.13v-197.56h-32.99v-45.85h32.99v-10.35c0-31.52,8.48-63.25,29.56-83.25,18.02-17.11,42.34-23.49,63.71-23.49,16.35,0,29.46,2.72,39.08,6.04l-4.3,47.29c-6.68-2.43-14.81-4.4-26.23-4.4-30.47,0-40.64,25.62-40.64,55.43v12.72h53.22v45.85h-52.8v197.56h-61.59Z"/>
    <path class="cls-5" d="M1866.97,472.65c-2.04-43.53-4.26-95.85-4.03-141.76h-1.38c-11.13,41.32-25.22,86.78-39.75,129.43l-49.48,145.83h-47.36l-44.68-143.84c-13.2-43.25-25.25-89.03-34.09-131.42h-1.11c-1.44,44.11-3.46,97.97-6.04,143.81l-7.5,135.44h-57.38l22.42-337h80.89l43.9,135.35c12.1,39.82,22.91,79.81,30.99,117.36h1.48c9.05-36.82,20.62-77.98,33.68-117.62l46.74-135.08h79.86l19.35,337h-59.99l-6.53-137.48Z"/>
    <path class="cls-5" d="M2227.5,486.03c0,89.48-62.8,129.6-125.05,129.6-68.67,0-121.81-47.4-121.81-125.4s52.59-129.01,125.95-129.01,120.91,51.03,120.91,124.82ZM2043.92,488.68c0,46.84,23.38,82.24,60.52,82.24s59.8-34.06,59.8-83.04c0-38.25-16.92-81.93-59.4-81.93s-60.92,42.16-60.92,82.74Z"/>
    <path class="cls-5" d="M2503.51,255.13v286.73c0,24.95.89,51.75,2,68.27h-54.79l-2.76-38.53h-1.11c-14.53,27.25-43.92,44.03-79.04,44.03-58.13,0-104.16-49.57-104.16-124.4-.38-81.57,50.58-130.02,109.12-130.02,33.34,0,57.33,13.75,68.22,31.72h1v-137.81h61.52ZM2441.99,468.12c0-4.92-.32-11.05-1.38-16.04-5.46-23.71-25.26-43.23-52.92-43.23-39.68,0-61.63,34.97-61.63,80.1s22.16,77.41,60.94,77.41c25.14,0,46.94-17.18,53.13-43.81,1.39-5.49,1.86-11.5,1.86-17.95v-36.48Z"/>
  </g>
</svg>