<?xml version="1.0" encoding="UTF-8"?>
<svg id="Layer_1" data-name="Layer 1" xmlns="http://www.w3.org/2000/svg" viewBox="0 0 2505.51 883.69">
  <defs>
    <style>
      .cls-1 {
        fill: #1c75bc;
      }

      .cls-1, .cls-2, .cls-3, .cls-4 {
        stroke: #1c75bc;
        stroke-miterlimit: 10;
      }

      .cls-1, .cls-4 {
        stroke-linecap: round;
      }

      .cls-5 {
        fill: #000;
      }

      .cls-5, .cls-6 {
        stroke-width: 0px;
      }

      .cls-2, .cls-6, .cls-3, .cls-4 {
        fill: none;
      }

      .cls-2, .cls-4 {
        stroke-width: 40px;
      }

      .cls-3 {
        stroke-width: 20px;
      }
    </style>
  </defs>
  <polyline class="cls-4" points="501.58 795.8 747.98 653.54 747.98 233.24 383.99 23.09 20 233.24 20 653.54 383.99 863.69"/>
  <circle class="cls-1" cx="383.99" cy="443.39" r="87.55"/>
  <circle class="cls-1" cx="383.99" cy="233.39" r="55.14"/>
  <circle class="cls-1" cx="565.99" cy="548.47" r="55.14"/>
  <polyline class="cls-6" points="747.98 653.54 383.99 443.39 20 653.54"/>
  <circle class="cls-1" cx="200.59" cy="548.47" r="55.14"/>
  <polyline class="cls-2" points="565.99 548.47 383.99 443.39 383.99 233.39"/>
  <path class="cls-3" d="M188.59,533.47l183.4-105.08-183.4,105.08Z"/>
  <path class="cls-3" d="M179.29,575.48l183.4-105.08-183.4,105.08Z"/>
  <line class="cls-3" x1="492.72" y1="800.92" x2="501.58" y2="795.8"/>
  <line class="cls-2" x1="383.99" y1="443.39" x2="383.99" y2="863.69"/>
  <g>
    <path class="cls-5" d="M878.87,277.76c23.4-4.27,57.61-7.25,93.36-7.25,48.29,0,81.25,8.15,103.93,27.17,18.55,15.42,29.05,38.78,29.05,67.68,0,43.4-29.51,73.01-61.3,84.19v1.43c24.42,9.25,38.65,32.47,47,65.22,10.72,42.17,19.9,80.83,26.62,93.93h-63.22c-5.23-9.75-13.28-37.58-22.71-79.51-9.66-43.93-25.65-58.18-60.63-58.98h-31v138.49h-61.1v-332.38ZM939.97,426.49h36.43c41.76,0,67.47-22.01,67.47-55.5,0-36.67-25.84-53.9-65.64-54.04-19.53,0-31.98,1.52-38.26,3.13v106.41Z"/>
    <path class="cls-5" d="M1206.09,505.45c1.64,44.12,35.77,63.39,75.17,63.39,28.31,0,48.57-4.44,67.18-11.28l9.11,42.37c-20.85,8.84-49.74,15.45-85.07,15.45-79.03,0-125.32-48.83-125.32-123.42,0-67.18,40.75-130.75,119.04-130.75s104.88,65.05,104.88,118.39c0,11.44-1,20.6-2.17,25.85h-162.83ZM1313.14,462.55c.27-22.55-9.53-59.32-50.76-59.32-37.88,0-53.64,34.41-56.38,59.32h107.15Z"/>
    <path class="cls-5" d="M1427.53,610.13v-197.56h-32.99v-45.85h32.99v-10.35c0-31.52,8.48-63.25,29.56-83.25,18.02-17.11,42.34-23.49,63.71-23.49,16.35,0,29.46,2.72,39.08,6.04l-4.3,47.29c-6.68-2.43-14.81-4.4-26.23-4.4-30.47,0-40.64,25.62-40.64,55.43v12.72h53.22v45.85h-52.8v197.56h-61.59Z"/>
    <path class="cls-5" d="M1866.97,472.65c-2.04-43.53-4.26-95.85-4.03-141.76h-1.38c-11.13,41.32-25.22,86.78-39.75,129.43l-49.48,145.83h-47.36l-44.68-143.84c-13.2-43.25-25.25-89.03-34.09-131.42h-1.11c-1.44,44.11-3.46,97.97-6.04,143.81l-7.5,135.44h-57.38l22.42-337h80.89l43.9,135.35c12.1,39.82,22.91,79.81,30.99,117.36h1.48c9.05-36.82,20.62-77.98,33.68-117.62l46.74-135.08h79.86l19.35,337h-59.99l-6.53-137.48Z"/>
    <path class="cls-5" d="M2227.5,486.03c0,89.48-62.8,129.6-125.05,129.6-68.67,0-121.81-47.4-121.81-125.4s52.59-129.01,125.95-129.01,120.91,51.03,120.91,124.82ZM2043.92,488.68c0,46.84,23.38,82.24,60.52,82.24s59.8-34.06,59.8-83.04c0-38.25-16.92-81.93-59.4-81.93s-60.92,42.16-60.92,82.74Z"/>
    <path class="cls-5" d="M2503.51,255.13v286.73c0,24.95.89,51.75,2,68.27h-54.79l-2.76-38.53h-1.11c-14.53,27.25-43.92,44.03-79.04,44.03-58.13,0-104.16-49.57-104.16-124.4-.38-81.57,50.58-130.02,109.12-130.02,33.34,0,57.33,13.75,68.22,31.72h1v-137.81h61.52ZM2441.99,468.12c0-4.92-.32-11.05-1.38-16.04-5.46-23.71-25.26-43.23-52.92-43.23-39.68,0-61.63,34.97-61.63,80.1s22.16,77.41,60.94,77.41c25.14,0,46.94-17.18,53.13-43.81,1.39-5.49,1.86-11.5,1.86-17.95v-36.48Z"/>
  </g>
  <g>
    <path class="cls-5" d="M1252.65,668.07c3.02-.65,6.91-1.01,10.01-1.01,5.47,0,9.65,1.51,11.95,4.32,1.73,2.02,2.52,4.68,2.52,7.13,0,7.06-6.34,12.6-12.38,13.97v.14c3.89,1.01,5.76,4.97,6.12,9.79.65,7.63.94,11.45,1.51,13.54h-3.6c-.14-.65-.79-6.7-1.08-11.74-.36-7.13-3.38-10.58-8.64-10.58h-7.92l-4.25,22.32h-3.38l9.15-47.88ZM1251.72,690.83h7.06c9.5,0,14.83-5.98,14.83-11.95,0-6.48-5.04-9.07-11.59-9.07-3.17,0-5.04.29-6.41.72l-3.89,20.31Z"/>
    <path class="cls-5" d="M1320.62,713.94c-1.58,1.01-5.62,2.88-11.67,2.88-9.5,0-13.25-7.06-13.25-14.04,0-10.8,8.71-22.25,19.37-22.25,6.98,0,10.01,4.1,10.01,8.28,0,9.79-12.6,11.09-25.63,10.8-.58,2.09-.29,6.05.65,8.35,1.66,4.03,5.04,5.98,9.29,5.98,4.97,0,8.35-1.58,10.23-2.66l1.01,2.66ZM1314.5,683.41c-7.2,0-12.89,7.34-14.62,13.39,11.59.22,21.75-.94,21.75-7.71,0-3.82-3.1-5.69-7.13-5.69Z"/>
    <path class="cls-5" d="M1344.24,715.96l6.05-31.83h-4.9l.58-2.74h4.9l.29-1.66c1.01-5.76,2.88-10.44,5.9-13.25,1.87-1.73,4.61-2.95,7.42-2.95s4.18.58,4.9,1.08l-1.08,2.74c-1.01-.58-2.52-.86-3.96-.86-5.98,0-8.42,5.69-9.79,13.32l-.29,1.58h8.86l-.58,2.74h-8.86l-6.05,31.83h-3.38Z"/>
    <path class="cls-5" d="M1377.93,715.96l6.62-34.56h3.38l-6.62,34.56h-3.38ZM1385.42,671.1c0-1.58,1.08-3.02,2.74-3.02s2.66,1.37,2.74,3.02c-.07,1.51-1.01,3.02-2.81,3.02s-2.66-1.51-2.66-3.02Z"/>
    <path class="cls-5" d="M1408.39,715.96l4.97-26.21c.58-2.81,1.01-5.54,1.37-8.35h3.17l-1.15,7.92h.14c3.02-5.18,8.57-8.78,14.62-8.78,2.88,0,9.72,1.15,9.72,10.73,0,1.37-.29,3.53-.65,5.54l-3.67,19.15h-3.38l3.74-19.66c.22-1.3.5-3.1.5-4.54,0-4.68-1.87-8.28-7.7-8.28-5.11,0-13.39,5.47-15.19,15.48l-3.1,16.99h-3.38Z"/>
    <path class="cls-5" d="M1488.02,713.94c-1.58,1.01-5.62,2.88-11.67,2.88-9.5,0-13.25-7.06-13.25-14.04,0-10.8,8.71-22.25,19.37-22.25,6.98,0,10.01,4.1,10.01,8.28,0,9.79-12.6,11.09-25.63,10.8-.58,2.09-.29,6.05.65,8.35,1.66,4.03,5.04,5.98,9.29,5.98,4.97,0,8.35-1.58,10.23-2.66l1.01,2.66ZM1481.9,683.41c-7.2,0-12.89,7.34-14.62,13.39,11.59.22,21.75-.94,21.75-7.71,0-3.82-3.1-5.69-7.13-5.69Z"/>
    <path class="cls-5" d="M1548.14,664.4l-8.28,43.2c-.5,2.81-1.01,5.54-1.3,8.35h-3.1l1.44-8.28h-.14c-3.82,5.62-8.64,9.14-14.83,9.14-8.21,0-11.31-6.7-11.31-13.03,0-12.75,10.58-23.26,22.97-23.26,3.02,0,6.26.58,7.99,1.37l3.17-17.5h3.38ZM1541.01,684.92c-1.66-.79-4.25-1.51-7.63-1.51-10.37,0-19.3,8.5-19.3,20.23,0,4.03,1.22,10.37,8.71,10.37,6.48,0,14.04-7.56,15.63-15.99l2.59-13.11Z"/>
    <path class="cls-5" d="M1602.64,668.07c2.66-.58,6.26-1.01,10.15-1.01,5.54,0,10.01,1.51,12.38,4.39,1.66,2.09,2.45,4.54,2.45,7.92,0,5.18-2.88,9.72-5.76,12.03-3.89,3.1-9.65,4.54-15.27,4.54-2.02,0-3.82-.07-5.9-.43l-3.89,20.45h-3.38l9.22-47.88ZM1601.27,692.48c2.38.5,4.1.58,5.98.58,9.87,0,16.99-5.04,16.99-13.68,0-6.98-5.47-9.5-12.02-9.5-3.17,0-5.47.29-6.77.72l-4.18,21.89Z"/>
    <path class="cls-5" d="M1662.62,670.3h-17.07l.58-2.88h37.52l-.58,2.88h-17.07l-8.71,45.65h-3.38l8.71-45.65Z"/>
    <path class="cls-5" d="M1738.29,715.96l3.53-29.02c.5-4.25,1.73-13.03,2.38-15.99h-.22c-2.09,3.96-4.9,9.5-7.78,14.4l-18.15,30.6h-2.66l-5.54-29.31c-1.15-6.12-1.87-11.67-2.38-15.7h-.14c-.72,2.95-2.66,11.74-3.82,15.99l-7.78,29.02h-3.31l13.18-48.53h3.89l6.26,34.42c.72,3.89,1.44,8.06,1.73,10.01h.14c1.08-1.94,3.02-5.76,5.26-9.58l20.38-34.85h4.03l-5.69,48.53h-3.31Z"/>
    <path class="cls-5" d="M1802.8,698.82l-9.65,17.14h-3.46l27.79-48.53h3.31l9.07,48.53h-3.31l-3.17-17.14h-20.59ZM1822.82,695.94l-3.1-17.07c-.36-2.02-.94-5.33-1.22-7.78h-.14c-1.3,2.52-2.38,4.75-3.96,7.56l-9.79,17.28h18.22Z"/>
    <path class="cls-5" d="M1852.04,715.96l4.97-26.21c.58-2.81,1.01-5.54,1.37-8.35h3.17l-1.15,7.92h.14c3.02-5.18,8.57-8.78,14.62-8.78,2.88,0,9.72,1.15,9.72,10.73,0,1.37-.29,3.53-.65,5.54l-3.67,19.15h-3.38l3.74-19.66c.22-1.3.5-3.1.5-4.54,0-4.68-1.87-8.28-7.7-8.28-5.11,0-13.39,5.47-15.19,15.48l-3.1,16.99h-3.38Z"/>
    <path class="cls-5" d="M1932.97,715.96c-.14-2.16.36-6.62,1.08-11.3h-.14c-4.18,8.57-9.86,12.17-16.27,12.17-6.98,0-10.87-5.54-10.87-11.59,0-12.89,10.8-24.7,25.06-24.7,3.17,0,6.7.43,9.15,1.08l-3.24,17.28c-1.44,7.63-1.73,13.68-1.51,17.07h-3.24ZM1937.15,684.13c-.94-.36-2.66-.72-5.83-.72-10.94,0-21.1,9-21.1,21.46,0,3.82,1.44,9.14,8.14,9.14s14.76-8.21,16.71-18.65l2.09-11.23Z"/>
    <path class="cls-5" d="M1961.48,715.96l9.86-51.56h3.38l-9.86,51.56h-3.38Z"/>
    <path class="cls-5" d="M1995.54,681.39l5.11,20.74c1.15,4.61,1.8,7.49,2.23,9.94h.22c1.01-2.02,2.16-4.46,4.32-8.71l11.16-21.96h3.67l-13.97,26.71c-3.17,6.05-6.19,11.88-10.94,16.99-4.32,4.68-8.86,6.48-10.87,6.98l-.86-2.88c1.37-.5,4.25-1.51,6.98-3.74,2.38-1.94,5.26-4.97,7.78-9.36.29-.5.22-.86.14-1.3l-8.42-33.41h3.46Z"/>
    <path class="cls-5" d="M2037.51,711.85c1.58,1.08,4.32,2.09,6.84,2.09,4.9,0,8.42-3.38,8.42-7.27,0-3.17-1.08-5.11-5.62-7.56-4.68-2.52-5.9-5.69-5.9-8.64,0-5.26,4.82-9.94,11.31-9.94,2.81,0,5.54.94,6.62,1.8l-1.22,2.88c-1.01-.72-3.24-1.8-5.83-1.8-4.25,0-7.56,2.95-7.56,6.62,0,3.24,1.8,4.97,5.62,7.06,4.54,2.45,5.98,5.69,5.98,8.78,0,6.7-5.69,10.95-12.02,10.95-3.6,0-6.41-1.15-7.85-2.23l1.22-2.74Z"/>
    <path class="cls-5" d="M2079.13,715.96l6.62-34.56h3.38l-6.62,34.56h-3.38ZM2086.62,671.1c0-1.58,1.08-3.02,2.74-3.02s2.66,1.37,2.74,3.02c-.07,1.51-1.01,3.02-2.81,3.02s-2.66-1.51-2.66-3.02Z"/>
    <path class="cls-5" d="M2109.3,711.85c1.58,1.08,4.32,2.09,6.84,2.09,4.9,0,8.42-3.38,8.42-7.27,0-3.17-1.08-5.11-5.62-7.56-4.68-2.52-5.9-5.69-5.9-8.64,0-5.26,4.82-9.94,11.31-9.94,2.81,0,5.54.94,6.62,1.8l-1.22,2.88c-1.01-.72-3.24-1.8-5.83-1.8-4.25,0-7.56,2.95-7.56,6.62,0,3.24,1.8,4.97,5.62,7.06,4.54,2.45,5.98,5.69,5.98,8.78,0,6.7-5.69,10.95-12.02,10.95-3.6,0-6.41-1.15-7.85-2.23l1.22-2.74Z"/>
  </g>
</svg>